<?xml version="1.0" standalone="no"?>
<!DOCTYPE svg PUBLIC "-//W3C//DTD SVG 20010904//EN"
 "http://www.w3.org/TR/2001/REC-SVG-20010904/DTD/svg10.dtd">
<svg version="1.0" xmlns="http://www.w3.org/2000/svg"
 width="1720.000000pt" height="359.000000pt" viewBox="0 0 1720.000000 359.000000"
 preserveAspectRatio="xMidYMid meet">
<metadata>
Created by potrace 1.15, written by Peter Selinger 2001-2017
</metadata>
<g transform="translate(0.000000,359.000000) scale(0.100000,-0.100000)"
fill="#000000" stroke="none">
<path d="M2555 3131 c-3 -11 5 -45 18 -78 43 -101 57 -199 57 -390 0 -213 -8
-250 -100 -486 l-23 -58 22 -67 c27 -83 27 -85 -4 -130 -28 -41 -30 -59 -13
-98 11 -24 10 -28 -15 -46 -20 -14 -27 -28 -27 -53 0 -62 -21 -60 -87 8 -104
106 -142 206 -150 400 -8 181 -5 177 -228 233 -116 29 -303 115 -385 177 -139
104 -208 187 -285 341 -39 78 -56 102 -73 104 -30 5 -45 -38 -37 -105 5 -42 4
-52 -7 -48 -7 3 -22 -1 -32 -8 -29 -21 -13 -101 34 -179 29 -49 36 -67 28 -81
-7 -13 -6 -29 3 -50 19 -48 92 -148 138 -190 24 -22 44 -50 48 -68 6 -31 77
-108 126 -137 15 -9 27 -21 27 -27 0 -5 9 -21 20 -35 11 -14 20 -35 20 -47 0
-12 5 -25 10 -28 6 -3 10 -17 10 -30 0 -26 36 -64 117 -123 29 -21 54 -48 58
-62 8 -30 43 -70 62 -70 7 0 13 -9 13 -19 0 -33 48 -80 93 -92 23 -6 77 -28
121 -50 70 -35 86 -39 155 -39 74 0 121 -13 128 -36 2 -7 -19 -30 -46 -51 -39
-32 -70 -45 -138 -62 -48 -13 -110 -33 -136 -47 -31 -15 -66 -24 -96 -24 -36
0 -53 -5 -67 -21 -47 -52 -72 -62 -170 -65 -52 -2 -103 -8 -114 -14 -11 -6
-33 -30 -50 -54 -16 -25 -39 -47 -49 -51 -30 -9 -81 -73 -81 -100 0 -14 9 -39
20 -57 11 -18 20 -48 20 -65 0 -26 -6 -36 -31 -48 -26 -14 -30 -20 -24 -43 8
-31 21 -42 53 -42 20 0 22 -5 22 -48 0 -71 50 -109 82 -63 7 10 22 21 34 25
35 11 71 58 93 125 23 71 45 101 73 101 16 0 18 -10 18 -109 0 -77 -4 -117
-15 -137 -8 -16 -15 -37 -15 -47 0 -10 -8 -21 -17 -24 -32 -12 -42 -37 -43
-100 0 -74 14 -93 70 -93 30 0 46 7 74 34 20 18 36 42 36 53 0 11 11 30 25 43
23 22 25 30 25 120 0 83 3 101 21 124 14 17 30 26 50 26 l29 0 0 -102 c0 -92
-2 -104 -25 -134 -14 -18 -25 -44 -25 -57 0 -13 -9 -32 -21 -43 -48 -43 -61
-102 -34 -153 37 -72 99 -48 194 73 27 34 31 47 32 105 1 125 12 168 52 209
25 26 54 42 95 54 79 23 142 88 142 147 0 48 13 59 86 71 80 13 146 36 218 77
33 19 66 39 71 43 22 18 2 -75 -21 -103 -19 -22 -24 -40 -24 -82 0 -67 22 -98
70 -98 27 0 43 10 86 55 43 45 54 63 54 90 0 47 41 138 63 138 14 0 17 -9 17
-54 0 -30 -5 -58 -11 -61 -6 -4 -9 -26 -7 -49 3 -40 2 -41 -29 -44 -47 -5 -93
-60 -93 -112 0 -51 27 -80 75 -80 46 0 81 18 126 67 67 70 73 89 77 280 l4
173 -31 29 c-16 15 -43 31 -58 34 -15 3 -44 16 -63 29 -35 24 -35 25 -32 88 3
62 2 68 -42 135 -50 77 -54 103 -29 167 23 62 50 88 89 88 22 0 44 10 66 29
49 42 78 55 138 61 51 5 55 7 63 37 12 41 2 94 -24 127 -19 25 -25 26 -114 26
-69 0 -104 5 -130 17 -35 17 -38 17 -67 0 -40 -23 -44 -22 -58 13 -19 46 -48
49 -85 7 -32 -36 -80 -54 -89 -31 -3 7 -1 28 5 46 5 18 9 62 9 99 0 46 7 83
24 125 25 62 53 245 40 266 -4 7 -7 75 -5 151 1 77 -2 144 -7 151 -5 6 -15 29
-22 51 -14 44 -37 75 -55 75 -7 0 -20 17 -29 39 -27 59 -98 131 -129 131 -17
0 -28 -7 -32 -19z m79 -40 c21 -21 48 -61 61 -90 17 -35 28 -49 38 -45 20 7
47 -33 47 -69 0 -15 7 -30 15 -33 13 -5 15 -40 13 -250 -2 -178 -6 -246 -16
-256 -6 -6 -12 -24 -12 -39 0 -15 -6 -32 -14 -38 -18 -15 -38 -293 -21 -309 2
-3 13 2 23 11 11 10 26 14 40 10 16 -4 22 -1 22 10 0 22 47 70 60 62 5 -3 17
-19 25 -36 18 -33 48 -38 77 -13 16 16 21 16 61 0 27 -10 73 -16 123 -16 55 0
86 -5 101 -15 25 -17 39 -71 29 -110 -6 -22 -12 -25 -52 -25 -50 0 -107 -25
-143 -64 -18 -19 -35 -26 -61 -26 -44 0 -79 -34 -103 -100 -27 -74 -22 -107
29 -185 44 -68 46 -72 41 -130 -5 -47 -2 -65 11 -81 20 -26 73 -54 100 -54 11
0 32 -10 46 -21 l28 -22 -4 -161 c-5 -185 -17 -226 -88 -290 -40 -36 -50 -40
-105 -36 -37 2 -35 0 -42 43 -5 32 -1 41 30 72 25 25 44 35 66 35 30 0 31 2
31 43 0 23 3 77 6 120 l6 77 -35 0 c-33 0 -37 -4 -61 -56 -14 -31 -26 -73 -26
-93 0 -31 -8 -45 -55 -91 -50 -50 -56 -53 -80 -42 -23 11 -25 17 -25 75 0 54
4 67 24 86 20 18 23 30 19 56 -4 25 0 41 16 61 11 15 21 36 21 47 0 20 -1 20
-27 -4 -16 -14 -50 -40 -78 -57 -27 -17 -55 -36 -61 -41 -6 -5 -38 -17 -70
-26 -32 -10 -69 -21 -82 -26 -13 -5 -33 -9 -46 -9 -13 0 -40 -7 -60 -15 -33
-14 -36 -18 -36 -57 0 -60 -38 -110 -102 -137 -28 -12 -58 -21 -68 -21 -9 0
-38 -22 -64 -50 l-46 -49 0 -114 0 -114 -72 -72 c-40 -39 -77 -71 -83 -71 -24
0 -55 41 -55 73 0 25 9 42 35 67 26 25 35 42 35 66 0 20 10 44 25 62 23 28 25
38 25 134 0 110 7 128 45 128 22 0 63 36 53 46 -3 3 -29 -6 -57 -20 -29 -15
-67 -26 -90 -26 -34 0 -44 -5 -65 -33 -24 -31 -26 -43 -26 -125 0 -87 -1 -93
-30 -125 -16 -19 -30 -44 -30 -56 0 -29 -41 -53 -87 -49 l-38 3 0 60 c0 55 2
61 28 73 21 10 27 20 27 46 0 19 7 39 15 46 12 10 15 40 15 147 l0 135 -32 -7
c-49 -10 -73 -39 -98 -113 -23 -71 -62 -122 -91 -122 -10 0 -25 -10 -34 -22
-16 -23 -16 -23 -30 -4 -17 23 -20 89 -5 117 11 20 -3 28 -15 9 -9 -14 -48
-13 -63 2 -15 15 -15 28 0 28 19 0 58 42 58 63 0 11 -12 45 -26 75 -22 47 -24
58 -13 84 7 17 27 37 49 48 20 10 52 39 71 64 39 51 102 76 140 55 14 -7 29
-8 47 -1 15 6 39 13 55 16 15 4 46 23 68 43 36 33 45 36 93 34 37 -1 57 3 66
14 7 8 20 15 29 15 9 0 24 7 35 15 10 7 44 17 75 21 62 7 114 34 179 92 31 27
41 43 36 55 -12 32 -59 47 -142 47 -73 0 -87 3 -158 39 -44 22 -92 43 -109 47
-38 8 -95 62 -95 88 0 14 -12 26 -33 36 -22 10 -35 25 -41 48 -5 19 -21 41
-35 50 -53 33 -141 115 -141 130 0 25 -23 84 -42 112 -10 13 -18 30 -18 37 0
7 -10 18 -22 24 -66 35 -138 119 -138 160 0 7 -30 43 -66 80 -36 36 -71 75
-77 86 -45 78 -48 86 -38 96 7 7 30 -9 76 -55 36 -36 75 -68 87 -71 12 -4 -15
28 -65 74 -48 44 -87 85 -87 91 0 6 -13 27 -28 47 -32 40 -48 78 -58 134 -9
52 14 49 55 -8 18 -25 34 -45 36 -45 2 0 -1 14 -6 30 -5 17 -13 45 -19 62 -12
40 -13 148 -1 148 14 0 30 -24 46 -69 26 -76 88 -164 176 -251 47 -47 97 -93
110 -102 13 -10 36 -27 51 -38 40 -31 246 -127 298 -140 25 -6 70 -17 100 -25
156 -38 157 -39 163 -165 7 -150 41 -289 87 -365 23 -37 154 -165 169 -165 6
0 11 8 11 19 0 10 7 24 15 31 11 9 14 22 10 42 -6 24 -3 28 14 28 36 0 57 72
25 84 -22 8 -11 53 22 86 26 28 26 20 -10 136 -15 48 -15 53 5 105 12 30 37
97 57 149 l36 95 0 260 -1 260 -30 80 c-17 44 -34 88 -38 98 -13 31 19 19 59
-22z"/>
<path d="M5017 2313 c-17 -16 -4 -52 29 -84 82 -78 143 -192 164 -308 6 -34
14 -69 17 -77 4 -12 -96 -14 -736 -14 l-741 0 -11 -27 c-12 -32 -3 -114 14
-125 7 -4 36 -8 65 -8 l52 0 0 -67 c-1 -44 -6 -75 -15 -87 -20 -26 -19 -71 1
-90 21 -21 28 -20 109 15 58 26 87 32 170 36 74 4 105 1 118 -9 15 -11 -1 -13
-110 -13 -121 0 -131 -2 -181 -28 -195 -103 -240 -277 -100 -389 66 -53 101
-63 213 -62 87 0 107 4 155 27 l54 26 63 -30 c50 -24 67 -28 83 -19 19 10 20
20 20 236 0 264 -8 309 -68 366 -53 51 -124 72 -226 65 -44 -3 -91 -8 -103
-12 -19 -6 -23 -4 -23 14 l0 21 470 0 470 0 0 -21 c0 -18 -4 -20 -27 -14 -57
14 -196 17 -237 5 -170 -51 -210 -91 -208 -207 1 -70 19 -117 62 -158 35 -33
38 -45 12 -45 -58 0 -84 -109 -40 -165 29 -37 108 -71 186 -80 63 -7 64 -8 97
-59 40 -61 80 -101 118 -115 68 -26 167 -1 167 42 0 30 -71 141 -96 151 -15 6
-11 11 26 33 64 37 90 62 111 108 34 74 15 168 -44 218 -79 67 -207 77 -350
27 -94 -32 -127 -37 -127 -17 0 20 13 33 50 53 51 27 279 27 362 0 84 -27 88
-22 88 125 l0 119 55 0 55 0 0 -303 c0 -345 -8 -312 92 -367 46 -24 62 -29 77
-21 18 10 20 25 23 178 3 162 4 170 30 215 49 82 141 141 215 136 68 -4 88
-36 88 -137 -1 -87 -13 -114 -96 -211 -74 -87 -72 -99 22 -156 75 -45 87 -42
157 39 72 83 94 136 100 233 9 160 -72 305 -206 365 -37 17 -60 20 -127 17
-69 -2 -88 -7 -123 -30 -23 -16 -44 -28 -47 -28 -4 0 -5 15 -3 33 l3 32 693 3
693 2 -3 -217 c-3 -209 -4 -219 -26 -249 -33 -44 -76 -65 -142 -71 l-59 -6 19
52 c26 66 26 115 1 138 -11 10 -49 34 -85 53 -64 35 -65 35 -80 15 -8 -11 -20
-44 -26 -72 -17 -80 -64 -142 -133 -177 -48 -24 -63 -27 -90 -20 -39 12 -57
44 -57 104 0 72 37 137 119 209 39 35 71 71 71 80 0 20 -124 151 -143 151 -25
0 -90 -59 -129 -116 -117 -172 -114 -348 8 -470 64 -63 118 -93 182 -101 71
-8 160 12 211 48 l43 30 37 -25 c61 -42 119 -58 188 -52 78 7 124 30 192 97
81 81 81 83 81 359 l0 240 55 0 55 0 0 -67 c-1 -44 -6 -75 -15 -87 -20 -26
-19 -71 1 -90 21 -21 28 -20 109 15 58 26 87 32 170 36 78 4 103 2 112 -8 9
-12 -8 -14 -110 -14 -114 0 -125 -2 -175 -28 -68 -36 -138 -100 -163 -149 -41
-80 -15 -177 63 -240 66 -53 100 -63 214 -62 89 0 109 4 156 27 l53 26 63 -30
c49 -23 67 -27 82 -19 19 10 20 22 20 236 0 311 -15 356 -139 411 -49 22 -66
24 -146 20 -49 -2 -101 -8 -114 -12 -19 -7 -22 -5 -19 11 3 18 18 19 233 24
127 3 231 7 233 8 8 7 0 130 -10 140 -9 9 -280 12 -1160 12 l-1148 0 0 40 c0
115 -88 317 -174 398 l-55 52 -84 0 c-46 0 -87 -3 -90 -7z m-785 -1034 l42
-21 -35 -29 c-82 -70 -233 -115 -313 -95 -34 8 -33 23 6 75 62 85 206 118 300
70z m3233 4 c19 -9 35 -22 35 -28 0 -15 -78 -71 -135 -96 -77 -34 -225 -38
-225 -6 0 30 63 97 113 121 64 31 158 35 212 9z m-2420 -36 c25 -19 13 -34
-49 -63 -41 -19 -67 -24 -131 -24 -48 1 -90 6 -104 14 l-24 13 34 6 c46 6 230
54 237 61 8 9 17 7 37 -7z"/>
<path d="M8469 1745 c-20 -13 -47 -39 -60 -57 -23 -32 -24 -39 -27 -283 -4
-269 1 -303 44 -355 47 -55 129 -83 158 -55 14 14 16 50 16 281 l0 264 154 0
155 0 3 -266 c4 -316 -5 -296 128 -292 l85 3 3 278 2 277 160 0 160 0 0 -239
c0 -264 3 -297 33 -312 27 -15 86 3 128 38 56 47 59 67 59 348 0 274 -2 287
-54 343 -47 53 -37 52 -593 51 l-518 0 -36 -24z m1102 -18 c18 -12 44 -40 56
-62 22 -39 23 -49 23 -293 0 -168 -4 -261 -11 -275 -19 -36 -61 -77 -80 -77
-10 0 -21 -4 -24 -10 -10 -17 -44 -11 -55 9 -6 12 -10 121 -10 285 l0 266
-175 0 c-96 0 -176 -1 -177 -2 -1 -2 -5 -129 -8 -283 l-5 -280 -80 0 -80 0 -5
280 -5 280 -175 0 -175 0 -5 -277 c-3 -152 -8 -280 -13 -284 -10 -11 -77 14
-104 39 -13 11 -32 38 -43 59 -18 36 -20 57 -19 276 0 282 7 310 80 348 l44
23 506 1 506 0 34 -23z"/>
<path d="M9829 1745 c-20 -13 -46 -39 -58 -58 -20 -33 -21 -47 -21 -309 l0
-275 30 -41 c58 -81 30 -77 611 -77 l515 0 43 28 c80 53 81 57 81 356 0 248
-1 267 -21 308 -14 29 -35 52 -63 68 l-43 25 -519 -1 -519 0 -36 -24z m1102
-18 c18 -12 44 -38 56 -56 22 -33 23 -40 23 -295 l0 -261 -37 -46 c-25 -29
-51 -50 -75 -57 -27 -9 -177 -12 -505 -12 -494 0 -526 3 -577 48 -44 40 -46
58 -46 341 l0 269 51 46 51 46 513 0 512 0 34 -23z"/>
<path d="M9941 1556 c-8 -9 -11 -68 -9 -192 l3 -179 455 0 455 0 0 190 0 190
-446 3 c-371 2 -448 0 -458 -12z m879 -186 l0 -170 -430 0 -430 0 0 170 0 170
430 0 430 0 0 -170z"/>
<path d="M11122 1758 c-17 -17 -17 -749 0 -766 9 -9 148 -12 565 -12 597 0
594 0 651 53 50 47 52 58 52 342 0 210 -3 272 -14 293 -16 31 -61 74 -93 91
-32 16 -1144 16 -1161 -1z m1169 -31 c18 -12 44 -38 56 -56 23 -33 23 -40 23
-301 0 -226 -2 -270 -15 -280 -8 -7 -15 -18 -15 -25 0 -6 -24 -24 -54 -38
l-55 -27 -538 0 c-406 0 -542 3 -551 12 -9 9 -12 103 -12 363 0 260 3 354 12
363 9 9 148 12 564 12 l551 0 34 -23z"/>
<path d="M11297 1563 c-4 -3 -7 -21 -7 -40 l0 -33 461 0 460 0 -3 38 -3 37
-451 3 c-248 1 -454 -1 -457 -5z m883 -38 c0 -13 -54 -15 -430 -15 -376 0
-430 2 -430 15 0 13 54 15 430 15 376 0 430 -2 430 -15z"/>
<path d="M11302 1301 c-9 -5 -12 -25 -10 -62 l3 -54 455 0 455 0 0 60 0 60
-445 2 c-245 2 -451 -1 -458 -6z m878 -61 l0 -40 -430 0 -430 0 0 40 0 40 430
0 430 0 0 -40z"/>
<path d="M12482 1758 c-17 -17 -17 -749 0 -766 19 -19 173 -16 192 4 14 13 16
62 16 378 0 427 9 396 -116 396 -49 0 -85 -5 -92 -12z m171 -20 c16 -12 17
-43 15 -373 l-3 -360 -73 -3 c-46 -2 -79 2 -88 9 -20 16 -21 724 -1 732 25 11
134 7 150 -5z"/>
<path d="M12762 1758 c-9 -9 -12 -94 -12 -320 0 -284 2 -312 19 -346 26 -50
70 -90 112 -102 20 -6 233 -10 522 -10 542 0 526 -2 588 67 42 46 55 87 40
126 l-10 27 -523 2 -523 3 -5 273 c-4 228 -7 274 -20 282 -22 14 -174 12 -188
-2z m176 -20 c9 -9 12 -86 12 -285 l0 -273 528 -2 527 -3 3 -41 c4 -55 -30
-96 -97 -118 -73 -24 -969 -24 -1026 0 -39 16 -82 59 -102 103 -16 34 -18 583
-3 612 9 16 22 19 78 19 40 0 73 -5 80 -12z"/>
<path d="M14120 1751 c-6 -13 -10 -149 -10 -375 0 -423 -8 -396 118 -396 47 0
83 5 90 12 9 9 12 108 12 385 0 432 12 393 -119 393 -69 0 -82 -3 -91 -19z
m179 -15 c8 -9 11 -116 9 -372 l-3 -359 -73 -3 c-46 -2 -79 2 -88 9 -19 16
-21 708 -2 727 17 17 142 16 157 -2z"/>
<path d="M14505 1753 c-63 -33 -95 -83 -95 -149 0 -61 13 -64 292 -64 l248 0
0 -268 c0 -195 3 -271 12 -280 16 -16 160 -16 176 0 9 9 12 85 12 280 l0 268
248 0 c272 0 292 4 292 57 0 44 -40 113 -83 144 l-40 29 -516 0 c-451 -1 -520
-3 -546 -17z m1082 -23 c34 -20 83 -104 83 -140 0 -19 -7 -20 -267 -22 l-268
-3 -5 -280 -5 -280 -54 -3 c-30 -2 -65 -1 -78 3 l-23 5 -2 278 -3 277 -265 5
-265 5 -3 27 c-4 37 33 105 71 128 31 19 53 20 542 20 489 0 511 -1 542 -20z"/>
<path d="M15855 1747 c-22 -12 -50 -38 -62 -56 -21 -31 -23 -45 -23 -166 0
-131 0 -132 31 -174 52 -73 83 -81 312 -81 l197 0 0 -133 c0 -90 4 -137 12
-145 16 -16 160 -16 176 0 8 8 12 55 12 145 l0 133 198 0 c224 0 254 8 310 76
l32 39 0 128 c0 139 -6 162 -57 208 -38 36 -66 49 -103 49 -42 0 -50 -26 -50
-166 l0 -114 -430 0 -430 0 0 118 c0 90 -4 123 -16 140 -20 28 -57 28 -109 -1z
m82 -5 c8 -5 13 -49 15 -137 l3 -130 449 -3 c353 -2 451 0 458 10 4 7 8 68 8
135 0 75 4 124 11 128 29 18 106 -32 134 -87 11 -23 15 -62 15 -148 0 -105 -2
-120 -22 -150 -41 -59 -93 -70 -320 -70 l-197 0 -3 -142 -3 -143 -75 0 -75 0
-3 143 -3 142 -198 0 c-178 0 -203 2 -247 21 -79 33 -94 66 -94 208 0 151 16
189 94 217 40 15 39 15 53 6z"/>
</g>
</svg>
